<svg width="16" height="16" viewBox="0 0 16 16" fill="none" xmlns="http://www.w3.org/2000/svg">
<path d="M5.33333 8.13333H9.99999" stroke="#F4F4F4" stroke-width="1.5" stroke-miterlimit="10" stroke-linecap="round" stroke-linejoin="round"/>
<path d="M5.33333 10.8H8.25333" stroke="#F4F4F4" stroke-width="1.5" stroke-miterlimit="10" stroke-linecap="round" stroke-linejoin="round"/>
<path d="M6.66666 3.99999H9.33333C10.6667 3.99999 10.6667 3.33333 10.6667 2.66666C10.6667 1.33333 10 1.33333 9.33333 1.33333H6.66666C5.99999 1.33333 5.33333 1.33333 5.33333 2.66666C5.33333 3.99999 5.99999 3.99999 6.66666 3.99999Z" stroke="#F4F4F4" stroke-width="1.5" stroke-miterlimit="10" stroke-linecap="round" stroke-linejoin="round"/>
<path d="M10.6667 2.67999C12.8867 2.79999 14 3.61999 14 6.66666V10.6667C14 13.3333 13.3333 14.6667 10 14.6667H6C2.66667 14.6667 2 13.3333 2 10.6667V6.66666C2 3.62666 3.11333 2.79999 5.33333 2.67999" stroke="#F4F4F4" stroke-width="1.5" stroke-miterlimit="10" stroke-linecap="round" stroke-linejoin="round"/>
</svg>
